<svg width="29" height="29" viewBox="0 0 29 29" fill="none" xmlns="http://www.w3.org/2000/svg">
<path d="M15.9916 22.9768C15.9494 22.9348 15.916 22.8848 15.8932 22.8298C15.8704 22.7748 15.8587 22.7158 15.8587 22.6563C15.8587 22.5967 15.8704 22.5377 15.8932 22.4827C15.916 22.4277 15.9494 22.3778 15.9916 22.3357L23.3741 14.9531L4.53089 14.9531C4.41072 14.9531 4.29547 14.9054 4.21049 14.8204C4.12551 14.7354 4.07777 14.6202 4.07777 14.5C4.07777 14.3798 4.12551 14.2646 4.21049 14.1796C4.29547 14.0946 4.41072 14.0469 4.53089 14.0469L23.3741 14.0469L15.9916 6.66434C15.9495 6.62224 15.9161 6.57226 15.8933 6.51726C15.8705 6.46225 15.8588 6.4033 15.8588 6.34376C15.8588 6.28422 15.8705 6.22526 15.8933 6.17026C15.9161 6.11525 15.9495 6.06527 15.9916 6.02317C16.0337 5.98107 16.0836 5.94768 16.1386 5.92489C16.1937 5.90211 16.2526 5.89038 16.3121 5.89038C16.3717 5.89038 16.4306 5.90211 16.4856 5.92489C16.5407 5.94768 16.5906 5.98107 16.6327 6.02317L24.789 14.1794C24.8311 14.2215 24.8645 14.2715 24.8873 14.3265C24.9101 14.3815 24.9219 14.4405 24.9219 14.5C24.9219 14.5596 24.9101 14.6185 24.8873 14.6735C24.8645 14.7285 24.8311 14.7785 24.789 14.8206L16.6327 22.9768C16.5906 23.019 16.5407 23.0524 16.4857 23.0752C16.4307 23.098 16.3717 23.1097 16.3121 23.1097C16.2526 23.1097 16.1936 23.098 16.1386 23.0752C16.0836 23.0524 16.0336 23.019 15.9916 22.9768Z" fill="black"/>
</svg>
